<svg xmlns="http://www.w3.org/2000/svg" xmlns:xlink="http://www.w3.org/1999/xlink" viewBox="0 0 369.91 208.15">
  <style>
    path {
      /* fill: url(#blue); */
      fill: #ffffff;
    }
  </style>
  <defs>
    <linearGradient id="blue" x1="0" y1="0" x2="369.91" y2="208.15" gradientUnits="userSpaceOnUse">
      <stop offset="0" stop-color="#36b3cb" />
      <stop offset="1" stop-color="#2d56d5" />
    </linearGradient>
  </defs>
  <path
    d="M273,47.35V88.13H356.2A7.77,7.77,0,0,1,364,95.9v32.36A7.77,7.77,0,0,1,356.2,136H273v64.34a7.77,7.77,0,0,1-7.77,7.77H225.7a7.77,7.77,0,0,1-7.77-7.77V136h-41.7v64.35a7.77,7.77,0,0,1-7.77,7.77H128.9a7.77,7.77,0,0,1-7.77-7.77V136h-66v64.35a7.77,7.77,0,0,1-7.77,7.77H7.77A7.77,7.77,0,0,1,0,200.38V7.77A7.77,7.77,0,0,1,7.77,0H47.33A7.77,7.77,0,0,1,55.1,7.77V88.13h66V7.77A7.77,7.77,0,0,1,128.9,0h39.56a7.77,7.77,0,0,1,7.77,7.77V88.13h41.7V7.77A7.77,7.77,0,0,1,225.7,0H362.14a7.77,7.77,0,0,1,7.77,7.77V39.58a7.77,7.77,0,0,1-7.77,7.77Z" />
</svg>