<svg id="layer_2" data-name="layer 2" xmlns="http://www.w3.org/2000/svg" viewBox="0 0 867.38 1024"><defs><style>.cls-1{fill:#3555a2;}</style></defs><path class="cls-1" d="M512,60a236.89,236.89,0,0,1,92.16,455A236.89,236.89,0,1,1,512,60m0-60C348.09,0,215.2,132.89,215.2,296.81S348.09,593.61,512,593.61s296.81-132.88,296.81-296.8S675.93,0,512,0Z" transform="translate(-77.05 0)"/><path class="cls-1" d="M510.74,650.31A373.5,373.5,0,0,1,879.67,964H141.81A373.37,373.37,0,0,1,510.74,650.31m0-60C271.22,590.31,77.05,784.48,77.05,1024H944.43c0-239.52-194.17-433.69-433.69-433.69Z" transform="translate(-77.05 0)"/></svg>
