<?xml version="1.0" encoding="utf-8"?>
<svg xmlns="http://www.w3.org/2000/svg" xmlns:xlink="http://www.w3.org/1999/xlink" version="1.1" style="width:0;height:0;position:absolute;overflow:hidden;">
  <defs>
<symbol viewBox="0 0 517 1024" aria-labelledby="ahsi-ant-arrow-down-title" id="si-ant-arrow-down"><title id="ahsi-ant-arrow-down-title">icon arrow-down</title><path d="M508 742q-9-9-22.5-9t-22.5 9L291 914V32q0-13-9.5-22.5T259 0t-22.5 9.5T227 32v883L55 743q-9-10-22.5-10T10 743q-10 9-10 22.5T10 788l226 227q9 9 22.5 9t22.5-9l227-228q9-9 9-22.5t-9-22.5z"/></symbol>
<symbol viewBox="0 0 1023 734" aria-labelledby="bgsi-ant-check-title" id="si-ant-check"><title id="bgsi-ant-check-title">icon check</title><path d="M1014 9q-10-9-23-9t-23 9L324 657 55 390q-10-10-23-10T9 390q-9 9-9 22.5T9 435l292 290q10 9 23 9t23-9l667-671q9-9 9-22.5T1014 9z"/></symbol>
<symbol viewBox="0 0 742 742" aria-labelledby="cdsi-ant-cross-title" id="si-ant-cross"><title id="cdsi-ant-cross-title">icon cross</title><path d="M733 9q-9-9-22.5-9T688 9L371 326 54 9q-9-9-22.5-9T9 9 0 31.5 9 54l317 317L9 688q-9 9-9 22.5T9 733t22.5 9 22.5-9l317-317 317 317q9 9 22.5 9t22.5-9 9-22.5-9-22.5L416 371 733 54q9-9 9-22.5T733 9z"/></symbol>
<symbol viewBox="0 0 1024 1024" aria-labelledby="fdsi-ant-plus-title" id="si-ant-plus"><title id="fdsi-ant-plus-title">icon plus</title><path d="M990 448H544V34q0-14-9.5-24T512 0t-22.5 10-9.5 24v414H34q-14 0-24 9.5T0 480t10 22.5 24 9.5h446v478q0 14 9.5 24t22.5 10 22.5-10 9.5-24V512h446q14 0 24-9.5t10-22.5-10-22.5-24-9.5z"/></symbol>
  </defs>
</svg>
